<?xml version="1.0" encoding="iso-8859-1"?>
<!-- Generator: Adobe Illustrator 23.0.2, SVG Export Plug-In . SVG Version: 6.00 Build 0)  -->
<svg version="1.1" baseProfile="basic" id="Layer_1"
	 xmlns="http://www.w3.org/2000/svg" xmlns:xlink="http://www.w3.org/1999/xlink" x="0px" y="0px" viewBox="0 0 17.78918 17.78406"
	 xml:space="preserve">
<style type="text/css">
	.st0{fill:#0DC5D4;}
</style>
<g>
	<path class="st0" d="M9.96169,12.94093c-0.02002-0.28821-0.26987-0.50562-0.55803-0.48557
		c-0.28817,0.02002-0.50559,0.26983-0.48557,0.55803l0.03498,0.50395c0.01998,0.28786,0.26938,0.50552,0.55804,0.48557
		c0.28817-0.02002,0.50559-0.26983,0.48557-0.55803L9.96169,12.94093z"/>
	<path class="st0" d="M12.44068,11.65323c-0.11661-0.26432-0.42542-0.38403-0.68967-0.26742
		c-0.26432,0.11661-0.38403,0.42539-0.26742,0.68967l0.19179,0.43477c0.11657,0.26425,0.42532,0.38407,0.68967,0.26742
		c0.26429-0.11661,0.38403-0.42539,0.26742-0.68967L12.44068,11.65323z"/>
	<path class="st0" d="M14.86287,10.39056c-0.19929-0.20901-0.53042-0.21693-0.7395-0.01754
		c-0.20905,0.19936-0.2169,0.53045-0.01754,0.7395l0.34864,0.36555c0.19929,0.20901,0.53042,0.21696,0.7395,0.01754
		c0.20905-0.19936,0.2169-0.53045,0.01754-0.7395L14.86287,10.39056z"/>
	<path class="st0" d="M9.33694,15.64362c-0.28852,0.01409-0.511,0.25944-0.49691,0.54796l0.02549,0.52153
		c0.01409,0.28855,0.25947,0.51103,0.54796,0.49691c0.28852-0.01409,0.51099-0.25944,0.49691-0.54796L9.8849,16.14053
		C9.87081,15.85197,9.62532,15.62974,9.33694,15.64362L9.33694,15.64362z"/>
	<path class="st0" d="M12.37585,14.90914c-0.08209-0.27698-0.37322-0.43498-0.65016-0.35282
		c-0.27698,0.08209-0.43494,0.37319-0.35282,0.65016l0.13966,0.47114c0.08219,0.27729,0.37354,0.43487,0.65016,0.35282
		c0.27698-0.08209,0.43494-0.37319,0.35282-0.65016L12.37585,14.90914z"/>
	<path class="st0" d="M14.8341,13.67939c-0.14921-0.24737-0.47072-0.32695-0.71806-0.1777
		c-0.24737,0.14921-0.32691,0.47068-0.1777,0.71806l0.25382,0.42078c0.14918,0.24734,0.47065,0.32695,0.71806,0.1777
		c0.24737-0.14921,0.32691-0.47072,0.1777-0.71806L14.8341,13.67939z"/>
	<path class="st0" d="M17.63718,12.84309l-0.36802-0.3704c-0.20358-0.2049-0.53474-0.20602-0.73971-0.00237
		c-0.20494,0.20361-0.20598,0.53478-0.00237,0.73971l0.36802,0.3704c0.20337,0.20473,0.5346,0.20619,0.73971,0.00237
		C17.83971,13.37919,17.84075,13.04799,17.63718,12.84309z"/>
	<path class="st0" d="M15.00835,6.94837L14.85,6.59269c-0.26174-0.58803-0.88296-0.90587-1.49058-0.81071L13.26174,5.5625
		c-0.56898-1.27787-1.90983-1.98156-3.24929-1.76732L9.66884,3.01447C8.86281,1.18327,7.04908,0,5.04823,0
		C2.26461,0,0,2.26464,0,5.04823v12.21276c0,0.28887,0.23419,0.52306,0.52306,0.52306H2.6153
		c0.28887,0,0.52306-0.23419,0.52306-0.52306V5.04823c0-1.0531,0.85677-1.90987,1.90987-1.90987
		c0.75701,0,1.44319,0.4476,1.74814,1.14045l0.36904,0.83815C6.20625,5.98667,5.89426,7.38544,6.43535,8.60138l0.09778,0.21941
		c-0.46838,0.37992-0.6607,1.04992-0.39379,1.64945l0.15835,0.35568c0.34613,0.77758,1.25747,1.13284,2.04154,0.78382
		l5.88534-2.61987C15.0035,8.64319,15.3551,7.72735,15.00835,6.94837L15.00835,6.94837z M12.30608,5.988l0.07811,0.17547
		L7.46923,8.35136l-0.07818-0.1755c-0.44582-1.0019-0.00676-2.17827,1.01087-2.63204l1.27083-0.56609
		C10.70506,4.52109,11.86406,4.99526,12.30608,5.988L12.30608,5.988z M5.04823,2.09224c-1.62993,0-2.95599,1.32606-2.95599,2.95599
		v11.6897H1.04612V5.04823c0-2.20676,1.79535-4.00211,4.00211-4.00211c1.58627,0,3.02416,0.93806,3.6632,2.38979l0.30351,0.6896
		l-0.95563,0.4257l-0.3055-0.69386C7.28191,2.78509,6.21989,2.09224,5.04823,2.09224L5.04823,2.09224z M13.7991,8.03421
		l-5.88534,2.61987c-0.2526,0.11239-0.54796-0.00094-0.66038-0.25354l-0.15835-0.35572
		C7.01661,9.86872,7.0957,9.6627,7.27186,9.58428c0.45056-0.20058,6.02879-2.68372,6.16193-2.743
		c0.17571-0.07818,0.38232,0.00112,0.46057,0.17683l0.15835,0.35568C14.16482,7.62577,14.05108,7.92206,13.7991,8.03421
		L13.7991,8.03421z"/>
</g>
</svg>
