<?xml version="1.0" encoding="iso-8859-1"?>
<!-- Generator: Adobe Illustrator 23.0.2, SVG Export Plug-In . SVG Version: 6.00 Build 0)  -->
<svg version="1.1" baseProfile="basic" id="Layer_1"
	 xmlns="http://www.w3.org/2000/svg" xmlns:xlink="http://www.w3.org/1999/xlink" x="0px" y="0px" viewBox="0 0 18.69049 12.94696"
	 xml:space="preserve">
<style type="text/css">
	.st0{fill:#0DC5D4;}
</style>
<path class="st0" d="M17.97251,6.15663V2.19029C17.97251,0.98249,16.99002,0,15.78222,0H2.90827
	c-1.2078,0-2.19029,0.98249-2.19029,2.19029v3.96634C0.28092,6.50471,0,7.04087,0,7.64164V9.6129
	c0,1.04681,0.85159,1.89825,1.89825,1.89825h0.97351v0.70571c0,0.40326,0.32683,0.7301,0.7301,0.7301s0.7301-0.32683,0.7301-0.7301
	v-0.70571h10.02671v0.70571c0,0.40326,0.32683,0.7301,0.7301,0.7301c0.40312,0,0.7301-0.32683,0.7301-0.7301v-0.70571h0.97337
	c1.04666,0,1.89825-0.85145,1.89825-1.89825V7.64164C18.69049,7.04087,18.40957,6.50471,17.97251,6.15663z M2.90827,1.46019
	h12.87409c0.40255,0,0.7301,0.32755,0.7301,0.7301v3.55309h-1.41157V4.33181c0-0.8051-0.65509-1.46019-1.46019-1.46019h-2.14609
	c-0.8051,0-1.46019,0.65509-1.46019,1.46019v1.41157H8.65607V4.33181c0-0.8051-0.65509-1.46019-1.46019-1.46019H5.04993
	c-0.80525,0-1.46019,0.65509-1.46019,1.46019v1.41157H2.17817V2.19029C2.17817,1.78774,2.50572,1.46019,2.90827,1.46019z
	 M11.49461,5.74338V4.33181h2.14594v1.41157H11.49461z M5.04979,5.74338V4.33181h2.14594v1.41157H5.04979z M17.23029,9.6129
	c0,0.24156-0.1965,0.43806-0.43806,0.43806H1.89825c-0.24156,0-0.43806-0.1965-0.43806-0.43806V7.64164
	c0-0.24156,0.1965-0.43806,0.43806-0.43806h14.89398c0.24156,0,0.43806,0.1965,0.43806,0.43806
	C17.23029,7.64164,17.23029,9.6129,17.23029,9.6129z"/>
</svg>
