<?xml version="1.0" encoding="iso-8859-1"?>
<!-- Generator: Adobe Illustrator 23.0.2, SVG Export Plug-In . SVG Version: 6.00 Build 0)  -->
<svg version="1.1" baseProfile="basic" id="Layer_1"
	 xmlns="http://www.w3.org/2000/svg" xmlns:xlink="http://www.w3.org/1999/xlink" x="0px" y="0px" viewBox="0 0 17.76621 15.35255"
	 xml:space="preserve">
<style type="text/css">
	.st0{fill:#0CC4D5;}
</style>
<g>
	<path class="st0" d="M14.13549,9.08547h-0.76786l-0.78847-1.86714c-0.29725-0.70375-0.96644-1.15851-1.70475-1.15851H6.89181
		c-0.73832,0-1.4075,0.45475-1.70475,1.15851L4.39858,9.08547H3.63072c-0.68139,0-1.23563,0.55424-1.23563,1.23577v2.0729
		c0,0.56143,0.37641,1.03624,0.88999,1.18616v0.53378c0,0.68288,0.5556,1.23848,1.23848,1.23848h0.99206
		c0.68288,0,1.23848-0.5556,1.23848-1.23848V13.6299h4.25802v0.48417c0,0.68288,0.5556,1.23848,1.23848,1.23848h0.99206
		c0.68288,0,1.23848-0.5556,1.23848-1.23848v-0.53378c0.51358-0.14991,0.88999-0.62473,0.88999-1.18616v-2.0729
		C15.37112,9.63972,14.81687,9.08547,14.13549,9.08547z M6.89181,7.12101h3.98246c0.31081,0,0.59626,0.20034,0.7272,0.51019
		l0.61416,1.45427H5.55058l0.61416-1.45427C6.29568,7.32135,6.581,7.12101,6.89181,7.12101z M14.13549,10.14666
		c0.0961,0,0.17445,0.07835,0.17445,0.17458v2.0729c0,0.09624-0.07835,0.17445-0.17445,0.17445H3.63072
		c-0.0961,0-0.17445-0.07821-0.17445-0.17445v-2.0729c0-0.09624,0.07835-0.17458,0.17445-0.17458H14.13549z M5.69277,14.11394
		c0,0.09773-0.07943,0.17729-0.17716,0.17729H4.52356c-0.09773,0-0.17729-0.07957-0.17729-0.17729v-0.48417h1.34651V14.11394z
		 M13.41981,14.11394c0,0.09773-0.07943,0.17729-0.17716,0.17729h-0.99206c-0.09773,0-0.17729-0.07957-0.17729-0.17729v-0.48417
		h1.34651V14.11394z"/>
	<path class="st0" d="M7.12101,11.88828h3.52418c0.29305,0,0.53066-0.23761,0.53066-0.53066s-0.23761-0.53066-0.53066-0.53066
		H7.12101c-0.29305,0-0.53066,0.23761-0.53066,0.53066S6.82796,11.88828,7.12101,11.88828z"/>
	<path class="st0" d="M12.66265,11.88828c0.27746,0,0.5434-0.24412,0.53066-0.53066
		c-0.01288-0.28749-0.23327-0.53066-0.53066-0.53066c-0.2776,0-0.54354,0.24412-0.53066,0.53066
		C12.14487,11.64511,12.36513,11.88828,12.66265,11.88828z"/>
	<path class="st0" d="M5.10356,11.88828c0.2776,0,0.54354-0.24412,0.53066-0.53066
		c-0.01288-0.28749-0.23314-0.53066-0.53066-0.53066c-0.2776,0-0.54354,0.24412-0.53066,0.53066
		C4.58577,11.64511,4.80603,11.88828,5.10356,11.88828z"/>
	<path class="st0" d="M17.46218,3.99574L9.10974,0.05083c-0.14354-0.06777-0.30972-0.06777-0.45326,0L0.30403,3.99574
		C0.11847,4.08344,0,4.27036,0,4.47557v10.34632c0,0.29305,0.23761,0.53052,0.53066,0.53052s0.53066-0.23748,0.53066-0.53052
		V4.81186L8.8831,1.11744l7.82178,3.69443v10.01003c0,0.29305,0.23761,0.53052,0.53066,0.53052s0.53066-0.23748,0.53066-0.53052
		V4.47557C17.76621,4.27036,17.64774,4.08344,17.46218,3.99574z"/>
</g>
</svg>
