<?xml version="1.0" encoding="iso-8859-1"?>
<!-- Generator: Adobe Illustrator 23.0.2, SVG Export Plug-In . SVG Version: 6.00 Build 0)  -->
<svg version="1.1" baseProfile="basic" id="Layer_1"
	 xmlns="http://www.w3.org/2000/svg" xmlns:xlink="http://www.w3.org/1999/xlink" x="0px" y="0px" viewBox="0 0 17.96891 17.96891"
	 xml:space="preserve">
<style type="text/css">
	.st0{fill:#0DC5D4;}
</style>
<path class="st0" d="M17.96891,1.75478v14.45935c0,0.96759-0.78718,1.75478-1.75478,1.75478H14.5061
	c-0.3877,0-0.70191-0.31421-0.70191-0.70191s0.31421-0.70191,0.70191-0.70191h1.70803c0.19357,0,0.35096-0.15738,0.35096-0.35096
	V9.72187h-6.20026c-0.3877,0-0.70191-0.31421-0.70191-0.70191c0-0.3877,0.31421-0.70191,0.70191-0.70191h6.20026V1.75478
	c0-0.19357-0.15738-0.35096-0.35096-0.35096H8.28515V3.4628c0,0.3877-0.31435,0.70191-0.70191,0.70191
	c-0.3877,0-0.70191-0.31421-0.70191-0.70191V1.40382H1.75478c-0.19357,0-0.35096,0.15738-0.35096,0.35096v6.52777h5.47751V6.22356
	c0-0.3877,0.31421-0.70191,0.70191-0.70191c0.38756,0,0.70191,0.31421,0.70191,0.70191v5.52165
	c0,0.3877-0.31435,0.70191-0.70191,0.70191c-0.3877,0-0.70191-0.31421-0.70191-0.70191V9.68636H1.40382v6.52777
	c0,0.19357,0.15738,0.35096,0.35096,0.35096h5.12655V14.5061c0-0.3877,0.31421-0.70191,0.70191-0.70191
	c0.38756,0,0.70191,0.31421,0.70191,0.70191v2.05898h3.46006c0.3877,0,0.70191,0.31421,0.70191,0.70191
	s-0.31421,0.70191-0.70191,0.70191H1.75478C0.78718,17.96891,0,17.18172,0,16.21413V1.75478C0,0.78718,0.78718,0,1.75478,0h14.45935
	C17.18172,0,17.96891,0.78718,17.96891,1.75478z"/>
</svg>
