<?xml version="1.0" encoding="iso-8859-1"?>
<!-- Generator: Adobe Illustrator 23.0.2, SVG Export Plug-In . SVG Version: 6.00 Build 0)  -->
<svg version="1.1" baseProfile="basic" id="Layer_1"
	 xmlns="http://www.w3.org/2000/svg" xmlns:xlink="http://www.w3.org/1999/xlink" x="0px" y="0px" viewBox="0 0 17.57854 17.3147"
	 xml:space="preserve">
<style type="text/css">
	.st0{fill:#0DC5D4;}
</style>
<g>
	<g>
		<path class="st0" d="M16.25932,10.12497V5.30984c0,0,0,0,0-0.03298c0-0.03298,0-0.06596,0-0.06596V5.17792
			c0-0.03298-0.03298-0.03298-0.03298-0.06596c0,0,0-0.03298-0.03298-0.03298C16.16038,5.046,16.16038,5.046,16.1274,5.01302
			c0,0,0,0-0.03298,0L9.10258,2.1767c-0.03298,0-0.06596-0.03298-0.13192-0.03298H6.10137
			c0-0.03298-0.03298-0.09894-0.06596-0.13192L4.65023,0.13192C4.58427,0.03298,4.48533,0,4.38639,0
			S4.18851,0.03298,4.12255,0.13192L2.73737,2.0118C2.70439,2.04478,2.70439,2.11074,2.67141,2.14372H0.3298
			C0.13192,2.14372,0,2.27565,0,2.47353v2.83631c0,0.19788,0.13192,0.3298,0.3298,0.3298h2.34161v7.45356
			c-0.06596,0-0.13192,0.03298-0.19788,0.09894l-1.55008,1.64902c-0.03298,0.06596-0.06596,0.1649-0.06596,0.23086v1.91286
			c0,0.19788,0.13192,0.3298,0.3298,0.3298h3.23208h3.23208c0.19788,0,0.3298-0.13192,0.3298-0.3298v-1.91286
			c0-0.09894-0.03298-0.1649-0.09894-0.23086l-1.55008-1.64902c-0.03298-0.06596-0.09894-0.06596-0.19788-0.09894V5.63964h9.49835
			v4.78215c0,0.19788,0.13192,0.3298,0.3298,0.3298c0.52769,0,0.95643,0.42875,0.95643,0.95643s-0.42874,0.95643-0.95643,0.95643
			c-0.52769,0-0.95643-0.42874-0.95643-0.95643c0-0.19788-0.13192-0.3298-0.3298-0.3298s-0.3298,0.13192-0.3298,0.3298
			c0,0.89047,0.72557,1.61604,1.61604,1.61604c0.89047,0,1.61604-0.72557,1.61604-1.61604
			C17.54556,10.94948,17.01787,10.28988,16.25932,10.12497z M4.38639,0.92345L5.30984,2.1767h-1.8469L4.38639,0.92345z
			 M7.28866,15.20395v1.45114H4.38639H1.5171v-1.45114l1.3522-1.45114h0.13192h2.77035h0.13192L7.28866,15.20395z M5.44176,5.93647
			v1.25325L3.33102,8.34403V7.09078L5.44176,5.93647z M3.33102,6.29925V5.63964h1.25325L3.33102,6.29925z M5.44176,7.91529v1.25325
			l-2.11074,1.15431V9.0696L5.44176,7.91529z M5.44176,9.89411v1.25325l-2.11074,1.15431v-1.25325L5.44176,9.89411z
			 M5.44176,11.90591v1.18729l-2.11074-0.03298L5.44176,11.90591z M0.65961,4.98004v-2.1767h8.27807l5.34282,2.1767H0.65961z"/>
	</g>
</g>
</svg>
