<?xml version="1.0" encoding="UTF-8"?>
<svg width="44px" height="9px" viewBox="0 0 44 9" version="1.1" xmlns="http://www.w3.org/2000/svg" xmlns:xlink="http://www.w3.org/1999/xlink">
    <title></title>
    <g id="Page-1" stroke="none" stroke-width="1" fill="none" fill-rule="evenodd">
        <g id="03-home-3" transform="translate(-606.000000, -4272.000000)" fill="#0EC6D5" fill-rule="nonzero">
            <g id="Group-14-Copy" transform="translate(0.000000, 3857.000000)">
                <g id="Group-6" transform="translate(375.000000, 253.000000)">
                    <g id="Group-12">
                        <path d="M270.5,171 C270.604167,171 270.6875,170.958333 270.75,170.875 L274.875,166.75 C274.958333,166.6875 275,166.604167 275,166.5 C275,166.395833 274.958333,166.3125 274.875,166.25 L270.75,162.125 C270.6875,162.041667 270.604167,162 270.5,162 C270.395833,162 270.3125,162.041667 270.25,162.125 L269.625,162.71875 C269.541667,162.802083 269.5,162.895833 269.5,163 C269.5,163.104167 269.541667,163.1875 269.625,163.25 L272.15625,165.6875 L231.375,165.6875 C231.270833,165.6875 231.182292,165.723958 231.109375,165.796875 C231.036458,165.869792 231,165.958333 231,166.0625 L231,166.9375 C231,167.041667 231.036458,167.130208 231.109375,167.203125 C231.182292,167.276042 231.270833,167.3125 231.375,167.3125 L272.15625,167.3125 L269.625,169.75 C269.541667,169.8125 269.5,169.895833 269.5,170 C269.5,170.104167 269.541667,170.197917 269.625,170.28125 L270.25,170.875 C270.3125,170.958333 270.395833,171 270.5,171 Z" id=""></path>
                    </g>
                </g>
            </g>
        </g>
    </g>
</svg>